<svg width="77" height="48" viewBox="0 0 77 48" fill="none" xmlns="http://www.w3.org/2000/svg">
<path d="M75.7096 41.4088H71.2467V2.94934C71.2467 1.32436 69.9225 0 68.2974 0H7.81084C6.18586 0 4.8615 1.32427 4.8615 2.94934V41.4088H0.398648C0.172297 41.4088 0 41.5912 0 41.8074V42.8784C0 45.6993 2.29049 48 5.12161 48H70.9859C73.8068 48 76.1075 45.7095 76.1075 42.8784V41.8074C76.1075 41.5811 75.9258 41.4088 75.7096 41.4088ZM47.5411 43.027C47.5411 43.9527 46.7877 44.7061 45.8621 44.7061H30.4165C29.4909 44.7061 28.7375 43.9527 28.7375 43.027V42.2128H47.5378V43.027H47.5411ZM68.2467 38.142C68.2467 38.642 67.8413 39.0406 67.348 39.0406H9.02104C8.52104 39.0406 8.12236 38.6352 8.12236 38.142V4.91232C8.12236 4.41232 8.52777 4.01364 9.02104 4.01364H28.7909L18.4126 31.3614C18.3348 31.5674 18.4396 31.8039 18.6457 31.8816C18.6896 31.8985 18.7403 31.9087 18.7842 31.9087C18.9497 31.9087 19.095 31.8141 19.1558 31.6485L29.6388 4.01713H34.5779L28.6286 19.6962C28.5509 19.9022 28.6556 20.1387 28.8617 20.2164C28.9056 20.2333 28.9563 20.2435 29.0002 20.2435C29.1658 20.2435 29.311 20.1489 29.3718 19.9833L35.4259 4.01715H67.3314C67.8314 4.01715 68.2301 4.42255 68.2301 4.91583V38.1455L68.2467 38.142Z" fill="#2A2C2E"/>
<path fill-rule="evenodd" clip-rule="evenodd" d="M47.7488 18.6487C47.2691 18.6487 46.8806 18.2602 46.8806 17.7805V12.7602C46.8806 12.2805 47.2691 11.892 47.7488 11.892C48.2285 11.892 48.617 12.2805 48.617 12.7602V17.7805C48.617 18.2602 48.2285 18.6487 47.7488 18.6487ZM49.9819 36.1354L47.7589 21.1932L60.2146 29.7404L53.4782 30.3451L49.9819 36.1354ZM50.489 20.4969C50.6546 20.4969 50.8235 20.4496 50.9721 20.3482L55.1376 17.5476C55.5363 17.2807 55.641 16.7402 55.3741 16.3415C55.1038 15.9429 54.5667 15.8381 54.1681 16.105L50.0026 18.9057C49.6039 19.1726 49.4992 19.7131 49.7661 20.1118C49.935 20.3617 50.2086 20.4969 50.489 20.4969ZM41.5702 26.6695C41.4216 26.7708 41.2527 26.8181 41.0871 26.8181C40.8067 26.8181 40.5331 26.683 40.3642 26.433C40.0973 26.0344 40.202 25.4939 40.6007 25.227L44.7662 22.4263C45.1648 22.1594 45.7053 22.2641 45.9722 22.6628C46.2391 23.0614 46.1344 23.6019 45.7357 23.8688L41.5702 26.6695ZM44.7525 20.402C44.9012 20.5067 45.0701 20.554 45.239 20.554C45.5194 20.554 45.7896 20.4222 45.9586 20.1722C46.2288 19.777 46.1241 19.2365 45.7288 18.9662L41.5768 16.1453C41.1816 15.875 40.641 15.9764 40.3708 16.375C40.1005 16.7703 40.2052 17.3108 40.6005 17.5811L44.7525 20.402Z" fill="#2A2C2E"/>
</svg>
