<svg width="152" height="220" viewBox="0 0 152 220" fill="none" xmlns="http://www.w3.org/2000/svg">
<path d="M15.5267 190.318L4.02314 194.481L4.0441 45.7924L116.923 4.8468V16.5662L120.946 15.1091V1.99507C120.946 0.641993 119.542 -0.357189 118.243 0.121617L1.34103 42.5449C0.544767 42.8363 0.0209539 43.5857 0.0209539 44.4184L0 197.354C0 198.707 1.40392 199.706 2.70307 199.228L15.5267 194.586L15.5267 190.318Z" fill="#5EDCF0"/>
<path d="M31.0345 200.688L19.531 204.851L19.552 56.1625L132.431 15.2169V26.9364L136.454 25.4792V12.3652C136.454 11.0121 135.05 10.0129 133.751 10.4917L120.927 15.1337L116.904 16.5909L16.851 52.8736C16.0548 53.1651 15.531 53.9144 15.531 54.7471L15.51 190.305V207.666C15.51 209.019 16.9139 210.018 18.2131 209.539L31.0367 204.897L31.0345 200.688Z" fill="#FC208A"/>
<path d="M151.139 21.0807C150.594 20.706 149.902 20.6227 149.295 20.8309L136.471 25.4729L132.448 26.93L32.3951 63.2128C31.5988 63.5042 31.075 64.2536 31.075 65.0862L31.0541 200.644V218.005C31.0541 219.358 32.458 220.357 33.7571 219.878L150.659 177.476C151.455 177.184 151.979 176.435 151.979 175.602L152 22.6666C152 22.0837 151.663 21.4554 151.139 21.0807C151.663 21.4554 150.594 20.706 151.139 21.0807ZM147.933 174.267L35.0541 215.192L35.075 66.5031L147.954 25.5575L147.933 174.267Z" fill="#2A2C2E"/>
<path d="M72.6231 86.5682C72.8536 86.5682 73.084 86.5266 73.3146 86.4433L111.995 72.3093C114.426 71.4142 113.043 67.6673 110.612 68.5624L71.9316 82.6964C69.8782 83.4457 70.4229 86.5682 72.6231 86.5682Z" fill="#2A2C2E"/>
<path d="M53.5374 108.321C53.7679 108.321 53.9984 108.279 54.2289 108.196L130.272 80.4275C132.702 79.5324 131.319 75.7855 128.889 76.6806L52.8459 104.449C50.7925 105.199 51.3372 108.321 53.5374 108.321Z" fill="#2A2C2E"/>
<path d="M53.5159 118.212C53.7464 118.212 53.9769 118.17 54.2074 118.087L130.25 90.3181C132.681 89.423 131.298 85.6761 128.867 86.5712L52.8244 114.34C50.771 115.089 51.3157 118.212 53.5159 118.212Z" fill="#2A2C2E"/>
<path d="M53.4944 128.097C53.7249 128.097 53.9554 128.055 54.1859 127.972L130.229 100.203C132.659 99.3081 131.276 95.5612 128.846 96.4563L52.803 124.225C50.7495 124.974 51.3152 128.097 53.4944 128.097Z" fill="#2A2C2E"/>
<path d="M53.4943 137.987C53.7248 137.987 53.9553 137.946 54.1858 137.863L130.229 110.094C132.659 109.199 131.276 105.452 128.846 106.347L52.8029 134.116C50.7284 134.865 51.2941 137.987 53.4943 137.987Z" fill="#2A2C2E"/>
<path d="M53.4729 147.851C53.7034 147.851 53.9339 147.81 54.1644 147.726L130.207 119.958C132.638 119.063 131.255 115.316 128.824 116.211L52.7815 143.979C50.728 144.729 51.2727 147.851 53.4729 147.851Z" fill="#2A2C2E"/>
<path d="M53.4515 157.763C53.6819 157.763 53.9124 157.721 54.1429 157.638L98.7537 141.339C101.184 140.444 99.8014 136.697 97.3708 137.592L52.76 153.891C50.7065 154.62 51.2513 157.763 53.4515 157.763Z" fill="#2A2C2E"/>
</svg>
