<svg id="etiWj2erKS81" xmlns="http://www.w3.org/2000/svg" xmlns:xlink="http://www.w3.org/1999/xlink" viewBox="0 0 152 220" shape-rendering="geometricPrecision" text-rendering="geometricPrecision">
<style><![CDATA[
#etiWj2erKS82 {animation: etiWj2erKS82_c_o 795.4545454545454ms linear 1 normal forwards}@keyframes etiWj2erKS82_c_o { 0% {opacity: 1} 69.52381% {opacity: 1;animation-timing-function: cubic-bezier(0.645,0.045,0.355,1)} 77.142857% {opacity: 0;animation-timing-function: cubic-bezier(0.645,0.045,0.355,1)} 84.761905% {opacity: 1;animation-timing-function: cubic-bezier(0.645,0.045,0.355,1)} 92.380952% {opacity: 0;animation-timing-function: cubic-bezier(0.645,0.045,0.355,1)} 100% {opacity: 1}} #etiWj2erKS83_to {animation: etiWj2erKS83_to__to 795.4545454545454ms linear 1 normal forwards}@keyframes etiWj2erKS83_to__to { 0% {transform: translate(83.473px,114.674637px)} 19.047619% {transform: translate(83.473px,114.674637px)} 36.190476% {transform: translate(60.473px,99.674637px)} 100% {transform: translate(60.473px,99.674637px)}} #etiWj2erKS83 {animation: etiWj2erKS83_c_o 795.4545454545454ms linear 1 normal forwards}@keyframes etiWj2erKS83_c_o { 0% {opacity: 0} 19.047619% {opacity: 0;animation-timing-function: cubic-bezier(0.445,0.05,0.55,0.95)} 36.190476% {opacity: 1} 100% {opacity: 1}} #etiWj2erKS84_to {animation: etiWj2erKS84_to__to 795.4545454545454ms linear 1 normal forwards}@keyframes etiWj2erKS84_to__to { 0% {transform: translate(91.981997px,120.015405px)} 9.52381% {transform: translate(91.981997px,120.015405px)} 26.666667% {transform: translate(75.981997px,110.015405px)} 100% {transform: translate(75.981997px,110.015405px)}} #etiWj2erKS84 {animation: etiWj2erKS84_c_o 795.4545454545454ms linear 1 normal forwards}@keyframes etiWj2erKS84_c_o { 0% {opacity: 0} 9.52381% {opacity: 0;animation-timing-function: cubic-bezier(0.445,0.05,0.55,0.95)} 26.666667% {opacity: 1} 100% {opacity: 1}} #etiWj2erKS85 {animation: etiWj2erKS85_c_o 795.4545454545454ms linear 1 normal forwards}@keyframes etiWj2erKS85_c_o { 0% {opacity: 0;animation-timing-function: cubic-bezier(0.445,0.05,0.55,0.95)} 17.142857% {opacity: 1} 100% {opacity: 1}} #etiWj2erKS86 {animation: etiWj2erKS86_c_o 795.4545454545454ms linear 1 normal forwards}@keyframes etiWj2erKS86_c_o { 0% {opacity: 1} 69.52381% {opacity: 1;animation-timing-function: cubic-bezier(0.645,0.045,0.355,1)} 77.142857% {opacity: 0;animation-timing-function: cubic-bezier(0.645,0.045,0.355,1)} 84.761905% {opacity: 1;animation-timing-function: cubic-bezier(0.645,0.045,0.355,1)} 92.380952% {opacity: 0;animation-timing-function: cubic-bezier(0.645,0.045,0.355,1)} 100% {opacity: 1}} #etiWj2erKS87 {animation: etiWj2erKS87_c_o 795.4545454545454ms linear 1 normal forwards}@keyframes etiWj2erKS87_c_o { 0% {opacity: 0} 71.428571% {opacity: 0;animation-timing-function: cubic-bezier(0.23,1,0.32,1)} 73.333333% {opacity: 1} 100% {opacity: 1}} #etiWj2erKS88 {animation: etiWj2erKS88_c_o 795.4545454545454ms linear 1 normal forwards}@keyframes etiWj2erKS88_c_o { 0% {opacity: 0} 68.571429% {opacity: 0;animation-timing-function: cubic-bezier(0.23,1,0.32,1)} 70.47619% {opacity: 1} 100% {opacity: 1}} #etiWj2erKS89 {animation: etiWj2erKS89_c_o 795.4545454545454ms linear 1 normal forwards}@keyframes etiWj2erKS89_c_o { 0% {opacity: 0} 65.714286% {opacity: 0;animation-timing-function: cubic-bezier(0.23,1,0.32,1)} 67.619048% {opacity: 1} 100% {opacity: 1}} #etiWj2erKS810 {animation: etiWj2erKS810_c_o 795.4545454545454ms linear 1 normal forwards}@keyframes etiWj2erKS810_c_o { 0% {opacity: 0} 62.857143% {opacity: 0;animation-timing-function: cubic-bezier(0.23,1,0.32,1)} 64.761905% {opacity: 1} 100% {opacity: 1}} #etiWj2erKS811 {animation: etiWj2erKS811_c_o 795.4545454545454ms linear 1 normal forwards}@keyframes etiWj2erKS811_c_o { 0% {opacity: 0} 60% {opacity: 0;animation-timing-function: cubic-bezier(0.23,1,0.32,1)} 61.904762% {opacity: 1} 100% {opacity: 1}} #etiWj2erKS812 {animation: etiWj2erKS812_c_o 795.4545454545454ms linear 1 normal forwards}@keyframes etiWj2erKS812_c_o { 0% {opacity: 0} 57.142857% {opacity: 0;animation-timing-function: cubic-bezier(0.23,1,0.32,1)} 59.047619% {opacity: 1} 100% {opacity: 1}} #etiWj2erKS813 {animation: etiWj2erKS813_c_o 795.4545454545454ms linear 1 normal forwards}@keyframes etiWj2erKS813_c_o { 0% {opacity: 0} 54.285714% {opacity: 0;animation-timing-function: cubic-bezier(0.23,1,0.32,1)} 56.190476% {opacity: 1} 100% {opacity: 1}}
]]></style>
<g id="etiWj2erKS82" transform="translate(0 0.000001)"><g id="etiWj2erKS83_to" transform="translate(83.473,114.674637)"><path id="etiWj2erKS83" d="M15.5267,190.318L4.02314,194.481L4.0441,45.7924L116.923,4.8468v11.7194l4.023-1.4571v-13.11403c0-1.353077-1.404-2.352259-2.703-1.873453L1.34103,42.5449c-.796263.2914-1.320076,1.0408-1.320076,1.8735L0,197.354c0,1.353,1.40392,2.352,2.70307,1.874l12.82363-4.642v-4.268Z" transform="translate(-60.473,-99.674637)" opacity="0" fill="#5edcf0"/></g><g id="etiWj2erKS84_to" transform="translate(91.981997,120.015405)"><path id="etiWj2erKS84" d="M31.0345,200.688L19.531,204.851l.021-148.6885L132.431,15.2169v11.7195l4.023-1.4572v-13.114c0-1.3531-1.404-2.3523-2.703-1.8735l-12.824,4.642-4.023,1.4572L16.851,52.8736c-.7962.2915-1.32,1.0408-1.32,1.8735L15.51,190.305v17.361c0,1.353,1.4039,2.352,2.7031,1.873l12.8236-4.642-.0022-4.209Z" transform="translate(-75.981997,-110.015405)" opacity="0" fill="#fc208a"/></g><path id="etiWj2erKS85" d="M151.139,21.0807c-.545-.3747-1.237-.458-1.844-.2498l-12.824,4.642-4.023,1.4571L32.3951,63.2128c-.7963.2914-1.3201,1.0408-1.3201,1.8734L31.0541,200.644v17.361c0,1.353,1.4039,2.352,2.703,1.873L150.659,177.476c.796-.292,1.32-1.041,1.32-1.874L152,22.6666c0-.5829-.337-1.2112-.861-1.5859.524.3747-.545-.3747,0,0ZM147.933,174.267L35.0541,215.192L35.075,66.5031L147.954,25.5575l-.021,148.7095Z" opacity="0" fill="#2a2c2e"/></g><g id="etiWj2erKS86" transform="translate(.000001 0)"><path id="etiWj2erKS87" d="M53.4515,157.763c.2304,0,.4609-.042.6914-.125l44.6108-16.299c2.4303-.895,1.0477-4.642-1.3829-3.747L52.76,153.891c-2.0535.729-1.5087,3.872.6915,3.872Z" opacity="0" fill="#2a2c2e"/><path id="etiWj2erKS88" d="M53.4729,147.851c.2305,0,.461-.041.6915-.125l76.0426-27.768c2.431-.895,1.048-4.642-1.383-3.747L52.7815,143.979c-2.0535.75-1.5088,3.872.6914,3.872Z" opacity="0" fill="#2a2c2e"/><path id="etiWj2erKS89" d="M53.4943,137.987c.2305,0,.461-.041.6915-.124l76.0432-27.769c2.43-.895,1.047-4.642-1.383-3.747L52.8029,134.116c-2.0745.749-1.5088,3.871.6914,3.871Z" opacity="0" fill="#2a2c2e"/><path id="etiWj2erKS810" d="M53.4944,128.097c.2305,0,.461-.042.6915-.125l76.0431-27.769c2.43-.8949,1.047-4.6418-1.383-3.7467L52.803,124.225c-2.0535.749-1.4878,3.872.6914,3.872Z" opacity="0" fill="#2a2c2e"/><path id="etiWj2erKS811" d="M53.5159,118.212c.2305,0,.461-.042.6915-.125L130.25,90.3181c2.431-.8951,1.048-4.642-1.383-3.7469L52.8244,114.34c-2.0534.749-1.5087,3.872.6915,3.872Z" opacity="0" fill="#2a2c2e"/><path id="etiWj2erKS812" d="M53.5374,108.321c.2305,0,.461-.042.6915-.125L130.272,80.4275c2.43-.8951,1.047-4.642-1.383-3.7469L52.8459,104.449c-2.0534.75-1.5087,3.872.6915,3.872Z" opacity="0" fill="#2a2c2e"/><path id="etiWj2erKS813" d="M72.6231,86.5682c.2305,0,.4609-.0416.6915-.1249l38.6804-14.134c2.431-.8951,1.048-4.642-1.383-3.7469L71.9316,82.6964c-2.0534.7493-1.5087,3.8718.6915,3.8718Z" opacity="0" fill="#2a2c2e"/></g></svg>
