<svg width="195" height="194" viewBox="0 0 195 194" fill="none" xmlns="http://www.w3.org/2000/svg">
<path fill-rule="evenodd" clip-rule="evenodd" d="M186.498 115.715L155.365 146.847L105.518 97L151.1 51.4184L151.1 75.4245L157.088 72.7817C166.799 68.4957 178.551 70.3382 186.498 78.2852C196.834 88.6211 196.834 105.379 186.498 115.715ZM75.6745 150.85L51.6684 150.85L97.25 105.268L147.097 155.115L115.965 186.248C105.629 196.584 88.8711 196.584 78.5352 186.248C70.5882 178.301 68.7457 166.549 73.0317 156.838L75.6745 150.85ZM8.00193 78.2852L39.1346 47.1525L88.982 97L43.4004 142.582L43.4004 118.576L37.4122 121.218C27.7005 125.504 15.9489 123.662 8.00193 115.715C-2.33396 105.379 -2.33399 88.6211 8.00193 78.2852ZM118.826 43.1504L142.832 43.1504L97.25 88.732L47.4025 38.8846L78.5352 7.75193C88.8711 -2.58399 105.629 -2.58396 115.965 7.75193C123.912 15.6989 125.754 27.4505 121.468 37.1622L118.826 43.1504Z" fill="white"/>
</svg>
