<svg width="195" height="195" viewBox="0 0 195 195" fill="none" xmlns="http://www.w3.org/2000/svg">
<path fill-rule="evenodd" clip-rule="evenodd" d="M186.498 115.965L155.365 147.097L105.518 97.25L151.1 51.6684L151.1 75.6745L157.088 73.0317C166.799 68.7457 178.551 70.5882 186.498 78.5352C196.834 88.8711 196.834 105.629 186.498 115.965ZM75.6745 151.1L51.6684 151.1L97.25 105.518L147.097 155.365L115.965 186.498C105.629 196.834 88.8711 196.834 78.5352 186.498C70.5882 178.551 68.7457 166.799 73.0317 157.088L75.6745 151.1ZM8.00193 78.5352L39.1346 47.4025L88.982 97.25L43.4004 142.832L43.4004 118.826L37.4122 121.468C27.7005 125.754 15.9489 123.912 8.00193 115.965C-2.33396 105.629 -2.33399 88.8711 8.00193 78.5352ZM118.826 43.4004L142.832 43.4004L97.25 88.982L47.4025 39.1346L78.5352 8.00192C88.8711 -2.33399 105.629 -2.33397 115.965 8.00193C123.912 15.9489 125.754 27.7005 121.468 37.4122L118.826 43.4004Z" fill="#2A2C2E"/>
</svg>
